<?xml version="1.0" standalone="no"?>
<!DOCTYPE svg PUBLIC "-//W3C//DTD SVG 20010904//EN"
 "http://www.w3.org/TR/2001/REC-SVG-20010904/DTD/svg10.dtd">
<svg version="1.0" xmlns="http://www.w3.org/2000/svg"
 width="85.000000pt" height="85.000000pt" viewBox="0 0 85.000000 85.000000"
 preserveAspectRatio="xMidYMid meet">
<metadata>
Created by potrace 1.11, written by Peter Selinger 2001-2013
</metadata>
<g transform="translate(0.000000,85.000000) scale(0.100000,-0.100000)"
fill="#000000" stroke="none">
<path d="M339 736 c-71 -15 -129 -53 -166 -108 -48 -71 -58 -106 -58 -203 1
-75 5 -99 26 -145 52 -112 130 -160 275 -168 190 -10 298 66 319 222 l7 46
-90 0 c-90 0 -90 0 -97 -27 -12 -49 -33 -73 -65 -73 -38 0 -60 32 -67 99 -12
110 16 201 62 201 23 0 55 -37 55 -65 0 -25 0 -25 95 -25 l96 0 -3 118 -3 117
-95 2 c-52 2 -113 7 -135 13 -51 12 -86 11 -156 -4z"/>
</g>
</svg>
